<svg id="Camada_1" data-name="Camada 1" xmlns="http://www.w3.org/2000/svg" viewBox="0 0 615.56 297.91"><defs><style>.cls-1{fill:#fff;}</style></defs><title>Logo_e_Nome_B</title><path class="cls-1" d="M321.42,152.15V140.91H306.05v12.24A31,31,0,0,0,337,184.1H363v3.64a10.53,10.53,0,0,1-10.52,10.52H306.05v14h49.29a22.76,22.76,0,0,0,22.74-22.73l.85-48.59H363.26v28.47l-24.58,0A17.28,17.28,0,0,1,321.42,152.15Z" transform="translate(-109.74 -139.91)"/><path class="cls-1" d="M465,166a25.08,25.08,0,0,0-25.05-25.05H391.82v71.32h14.84V154.85l31.77-.31a10.15,10.15,0,1,1,0,20.29H417.38v14.55h16.11l12.84,22.85H463l-12.4-23.58.46-.23A24.91,24.91,0,0,0,465,166Z" transform="translate(-109.74 -139.91)"/><polygon class="cls-1" points="133.24 58.16 118.4 44.23 118.4 72.32 133.24 72.32 133.24 58.16"/><polygon class="cls-1" points="184.57 1 164.36 1 133.6 30.01 133.6 1 118.4 1 118.4 28.46 163.96 72.19 184.56 72.31 149.6 36.66 184.57 1"/><path class="cls-1" d="M195.13,170.16h0l-24.91-.11a7.58,7.58,0,0,1,0-15.16h44.94v-14h-47.3a21,21,0,0,0,0,42.07l24.91.12a7.58,7.58,0,1,1,0,15.16H147.84v14h47.29a21,21,0,1,0,0-42.07Z" transform="translate(-109.74 -139.91)"/><path class="cls-1" d="M475.94,176.57a35.51,35.51,0,0,0,35.48,35.48l12.72.18L524,199.11H513.18a22,22,0,1,1,0-43.92l21-.07.36,57.11H549V141.09H511.42A35.52,35.52,0,0,0,475.94,176.57Z" transform="translate(-109.74 -139.91)"/><polygon class="cls-1" points="471.56 42.38 487.54 26.01 487.54 14.49 507.28 14.49 507.28 1.18 452.48 1.18 452.48 14.49 471.56 14.49 471.56 42.38"/><path class="cls-1" d="M675,170.16h0L650,170.05a7.58,7.58,0,1,1,0-15.16h45v-14h-47.3a21,21,0,1,0,0,42.07l24.91.12a7.58,7.58,0,0,1,0,15.16h-45v14H675a21,21,0,0,0,0-42.07Z" transform="translate(-109.74 -139.91)"/><polygon class="cls-1" points="487.54 40.25 471.56 56.64 471.56 72.32 487.54 72.32 487.54 40.25"/><path class="cls-1" d="M195.14,169.16l-24.91-.11a6.58,6.58,0,1,1,0-13.16h45.94v-16h-48.3a22,22,0,0,0,0,44.07l24.91.12a6.58,6.58,0,0,1,0,13.16H146.84v16h48.29a22,22,0,1,0,0-44.07Zm0,43.07H147.84v-14h44.94a7.58,7.58,0,1,0,0-15.16L167.87,183a21,21,0,0,1,0-42.07h47.3v14H170.23a7.58,7.58,0,0,0,0,15.16l24.91.11h0a21,21,0,1,1,0,42.07Z" transform="translate(-109.74 -139.91)"/><path class="cls-1" d="M675,169.16,650,169.05a6.58,6.58,0,1,1,0-13.16h46v-16h-48.3a22,22,0,1,0,0,44.07l24.91.12a6.58,6.58,0,0,1,0,13.16h-46v16H675a22,22,0,0,0,0-44.07Zm0,43.07h-47.3v-14h45a7.58,7.58,0,0,0,0-15.16L647.69,183a21,21,0,1,1,0-42.07H695v14H650a7.58,7.58,0,1,0,0,15.16l24.91.11h0a21,21,0,0,1,0,42.07Z" transform="translate(-109.74 -139.91)"/><path class="cls-1" d="M296.69,139.91h-23L244.34,167.6V139.91h-17.2v28.88l46.16,44.3,23.4.15-36-36.67Zm-2.39,72.32-20.6-.13-45.56-43.73V140.91h15.2v29l30.76-29h20.21l-35,35.66Z" transform="translate(-109.74 -139.91)"/><path class="cls-1" d="M227.14,213.23H244V197.64l-16.84-15.82Zm1-29.09L243,198.07v14.16H228.14Z" transform="translate(-109.74 -139.91)"/><path class="cls-1" d="M362.26,168.38l-23.59,0a16.27,16.27,0,0,1-16.25-16.26V139.91H305.05v13.24A32,32,0,0,0,337,185.1H362v2.64a9.53,9.53,0,0,1-9.52,9.52H305.05v16h50.29a23.77,23.77,0,0,0,23.74-23.73l.87-49.59H362.26Zm1-27.47h15.67l-.85,48.59a22.76,22.76,0,0,1-22.74,22.73H306.05v-14h46.47A10.53,10.53,0,0,0,363,187.74V184.1H337a31,31,0,0,1-30.94-30.95V140.91h15.37v11.24a17.28,17.28,0,0,0,17.26,17.26l24.58,0Z" transform="translate(-109.74 -139.91)"/><path class="cls-1" d="M466,166a26.08,26.08,0,0,0-26.05-26.05H390.82v73.32h16.84V155.85l30.77-.31a9.15,9.15,0,1,1,0,18.29H416.38v16.55h16.53l12.84,22.85h18.88l-12.7-24.14A25.92,25.92,0,0,0,466,166Zm-3,46.27H446.33l-12.84-22.85H417.38V174.83h21.05a10.15,10.15,0,1,0,0-20.29l-31.77.31v57.38H391.82V140.91h48.12A25,25,0,0,1,451,188.42l-.46.23Z" transform="translate(-109.74 -139.91)"/><path class="cls-1" d="M474.94,176.57a36.51,36.51,0,0,0,36.47,36.48l13.73.19L525,198.11H513.18a21,21,0,1,1,0-41.92l20-.07.36,57.11H550V140.09H511.42A36.52,36.52,0,0,0,474.94,176.57Zm74,35.66H534.5l-.36-57.11-21,.07a22,22,0,1,0,0,43.92H524l.12,13.12-12.72-.18a35.48,35.48,0,0,1,0-71H549Z" transform="translate(-109.74 -139.91)"/><path class="cls-1" d="M561.22,155.4H580.3v29.35l18-18.43V155.4H618V140.09h-56.8Zm1-14.31H617V154.4H597.28v11.52l-16,16.37V154.4H562.22Z" transform="translate(-109.74 -139.91)"/><path class="cls-1" d="M580.3,213.23h18V177.7l-18,18.45Zm1-16.68,16-16.39v32.07h-16Z" transform="translate(-109.74 -139.91)"/><polygon class="cls-1" points="196.95 236.48 254.33 180.09 142.45 180.09 196.95 236.48"/><polygon class="cls-1" points="258.96 182.88 258.96 245.01 307.41 295.67 356.7 244.92 356.7 182.86 307.4 231.6 258.96 182.88"/><polygon class="cls-1" points="361.24 180.29 418.62 236.68 473.11 180.29 361.24 180.29"/><polygon class="cls-1" points="110.62 164.46 1.55 53.03 1.55 115.32 50.36 164.46 110.62 164.46"/><polygon class="cls-1" points="1.55 192.42 49.26 240.91 49.26 179.63 1.55 131.15 1.55 192.42"/><polygon class="cls-1" points="53.99 180.09 115.21 242.77 186.87 242.77 125.45 180.09 53.99 180.09"/><polygon class="cls-1" points="565.21 164.66 614.01 115.52 614.01 53.23 504.95 164.66 565.21 164.66"/><polygon class="cls-1" points="489.63 164.66 552.13 101.98 430.71 101.98 371.49 164.66 489.63 164.66"/><polygon class="cls-1" points="244.07 164.46 184.85 101.78 63.44 101.78 125.93 164.46 244.07 164.46"/><polygon class="cls-1" points="614.01 131.35 566.3 179.83 566.3 241.1 614.01 192.62 614.01 131.35"/><polygon class="cls-1" points="417.6 101.98 357.7 101.98 307.4 151.89 257.86 101.78 197.95 101.78 307.41 212.62 417.6 101.98"/><polygon class="cls-1" points="428.69 242.97 500.36 242.97 562.03 180.39 490.11 180.29 428.69 242.97"/><path class="cls-1" d="M160.1,318.45l-50.36-51.18V333l50.82,51.64V319l63.51,65,.23.24h76l-64.46-65.79ZM159,380.82l-47.71-48.49V271.06L159,319.55ZM225,382.68,163.73,320h71.46l61.42,62.68Z" transform="translate(-109.74 -139.91)"/><path class="cls-1" d="M159.45,305.93h64.6L109.74,189.13v66.74l49.49,49.83Zm-48.16-113L220.36,304.37H160.1l-48.81-49.14Z" transform="translate(-109.74 -139.91)"/><path class="cls-1" d="M357.42,305.93l-62.16-65.79H169.43L235,305.93Zm-62.83-64.24,59.23,62.68H235.68l-62.5-62.68Z" transform="translate(-109.74 -139.91)"/><path class="cls-1" d="M599.2,318.64l-64.47,65.79h76l63.74-64.67v65.05l50.82-51.64V267.46l-50.47,51.29Zm10.9,64.24H538.43l61.42-62.68,71.92.1Zm65.95-63.14,47.7-48.48v61.27L676.05,381Z" transform="translate(-109.74 -139.91)"/><path class="cls-1" d="M467.18,318.65l.61.59-50.64,50.07-49.93-50.22.65-.64H248.53l58.13,60.15,60.49-59.44v66.39l50,52.27L468,385.46v-66l60.4,59.35,58.13-60.14ZM306.69,376.39,252.19,320H364.07Zm159.75,8.44-49.29,50.75L368.7,384.92V322.79l48.45,48.72,49.29-48.74Zm61.92-8.24L471,320.2H582.85Z" transform="translate(-109.74 -139.91)"/><path class="cls-1" d="M675.59,306.12l49.72-50.05V189.33L611,306.12Zm48.16-50.69L675,304.57H614.69L723.75,193.14Z" transform="translate(-109.74 -139.91)"/><path class="cls-1" d="M600,306.12l65.6-65.79H539.79l-62.17,65.79Zm-59.56-64.23H661.87l-62.5,62.68H481.23Z" transform="translate(-109.74 -139.91)"/><path class="cls-1" d="M417.15,354.73l113.93-114.4H466.8L417.15,289.6l-48.9-49.46H304l112.62,114Zm-49.55-113,49.55,50.11,50.29-49.91h59.9L417.15,352.53,307.69,241.69Z" transform="translate(-109.74 -139.91)"/></svg>