<svg xmlns="http://www.w3.org/2000/svg" viewBox="0 0 396.16 160.05"><defs><style>.cls-1{fill:none;stroke:#9b2349;stroke-miterlimit:10;}.cls-2{fill:#000300;}</style></defs><title>logoVetorizado</title><g id="logo"><path class="cls-1" d="M275.08,83.56" transform="translate(-99.56 -266.62)"/><polygon class="cls-2" points="126.75 120.52 163.68 84.23 91.68 84.23 126.75 120.52"/><polygon class="cls-2" points="166.66 86.02 166.66 126 197.84 158.6 229.56 125.95 229.56 86 197.84 117.37 166.66 86.02"/><polygon class="cls-2" points="232.48 84.35 269.41 120.64 304.48 84.35 232.48 84.35"/><polygon class="cls-2" points="71.19 74.17 1 2.45 1 42.54 32.41 74.17 71.19 74.17"/><polygon class="cls-2" points="1 92.16 31.7 123.36 31.7 83.93 1 52.73 1 92.16"/><polygon class="cls-2" points="34.75 84.23 74.15 124.56 120.27 124.56 80.74 84.23 34.75 84.23"/><polygon class="cls-2" points="363.75 74.29 395.16 42.66 395.16 2.58 324.97 74.29 363.75 74.29"/><polygon class="cls-2" points="315.11 74.29 355.33 33.95 277.2 33.95 239.08 74.29 315.11 74.29"/><polygon class="cls-2" points="157.08 74.17 118.97 33.83 40.83 33.83 81.05 74.17 157.08 74.17"/><polygon class="cls-2" points="395.16 52.85 364.46 84.06 364.46 123.49 395.16 92.29 395.16 52.85"/><polygon class="cls-2" points="268.76 33.95 230.21 33.95 197.84 66.07 165.95 33.83 127.4 33.83 197.84 105.16 268.76 33.95"/><polygon class="cls-2" points="275.89 124.69 322.01 124.69 361.71 84.42 315.42 84.35 275.89 124.69"/><path class="cls-2" d="M132,349.84,99.56,316.9v42.29l32.7,33.23V350.18L173.14,392l.14.15H222.2l-41.48-42.34ZM131.26,390l-30.7-31.2V319.34l30.7,31.21Zm42.44,1.2-39.39-40.34h46l39.52,40.34Z" transform="translate(-99.56 -266.62)"/><path class="cls-2" d="M131.55,341.78h41.58L99.56,266.62v42.95l31.85,32.06Zm-31-72.71,70.19,71.71H132l-31.41-31.62Z" transform="translate(-99.56 -266.62)"/><path class="cls-2" d="M259,341.78l-40-42.34H138l42.22,42.34Zm-40.44-41.34,38.12,40.34h-76l-40.23-40.34Z" transform="translate(-99.56 -266.62)"/><path class="cls-2" d="M414.56,350l-41.49,42.34H422l41-41.63v41.87l32.7-33.24V317l-32.48,33Zm7,41.34H375.45L415,351l46.28.06ZM464,350.67l30.7-31.2V358.9L464,390.11Z" transform="translate(-99.56 -266.62)"/><path class="cls-2" d="M329.6,350l.39.38L297.4,382.58l-32.14-32.33.42-.41h-76.8l37.41,38.71,38.93-38.25V393l32.17,33.64L330.12,393V350.48L369,388.68,406.4,350ZM226.31,387.13l-35.07-36.29h72Zm102.81,5.44L297.4,425.22l-31.18-32.6v-40L297.39,384l31.73-31.37ZM369,387.26,332,351h72Z" transform="translate(-99.56 -266.62)"/><path class="cls-2" d="M463.72,341.91l32-32.22V266.74l-73.57,75.17Zm31-32.63-31.41,31.63H424.53l70.19-71.72Z" transform="translate(-99.56 -266.62)"/><path class="cls-2" d="M415.09,341.91l42.21-42.34h-81l-40,42.34Zm-38.34-41.34h78.14l-40.22,40.34h-76Z" transform="translate(-99.56 -266.62)"/><path class="cls-2" d="M297.4,373.19l73.32-73.62H329.35l-32,31.7-31.47-31.83H224.56L297,372.83Zm-31.89-72.75,31.88,32.25,32.37-32.12h38.55l-70.91,71.2L227,300.44Z" transform="translate(-99.56 -266.62)"/></g></svg>